                            <svg
                                className="w-5"
                                xmlns="http://www.w3.org/2000/svg"
                                version="1.1"
                                x="0px"
                                y="0px"
                                viewBox="0 0 500 500"
                                enable-background="new 0 0 500 500"
                            >
                                <g>
                                    <g>
                                        <circle cx="141" cy="429.1" r="3.6" />
                                        <g>
                                            <path d="M163.6,429.1c0,1-0.8,5.7-0.1,2.8c-0.4,1.5-0.7,3-1.1,4.5c-0.2,0.6-0.4,1.2-0.6,1.9c0.9-2.6,0.3-0.6,0,0     c-0.8,1.5-1.7,3-2.6,4.5c-1.5,2.4-0.4,0.5,0,0c-0.6,0.6-1.1,1.3-1.7,1.9c-0.6,0.6-1.3,1.2-1.8,1.8c-0.1,0.1-1.8,1.5-0.5,0.5     c1.1-0.9-2.1,1.4-2.7,1.7c-0.7,0.4-1.5,0.8-2.3,1.2c-2.4,1.3,1-0.2-0.6,0.3c-1.5,0.4-2.9,0.9-4.4,1.3c-2.7,0.7-0.7,0.2,0,0.1     c-0.9,0.1-1.8,0.2-2.7,0.2c-1.6,0.1-3.2-0.1-4.8-0.1c-1.8-0.1,0.4,0,0.6,0.1c-1.1-0.3-2.2-0.4-3.2-0.7c-0.9-0.3-4.5-1.6-2-0.5     c-1.6-0.7-3.1-1.5-4.6-2.5c-0.7-0.5-1.4-0.9-2.1-1.5c0.2,0.1,1.8,1.5,0.5,0.3c-1.4-1.3-2.8-2.7-4.1-4.1c1.8,2-0.5-0.8-1-1.7     c-0.8-1.3-1.5-2.6-2.1-4c1.3,2.9-0.5-1.9-0.7-2.6c-0.2-0.6-0.3-1.3-0.4-1.9c-0.4-1.6,0,2.2-0.1-0.7c0-1.6-0.1-3.2,0-4.8     c0-0.5,0.4-3.3,0.1-1.4c-0.3,1.8,0.1-0.4,0.2-0.6c0.5-1.7,0.9-3.4,1.5-5.1c-1,2.8,0.8-1.4,1.3-2.3c0.4-0.7,3.4-4.5,1.4-2.2     c1-1.1,2-2.2,3.1-3.3c0.4-0.5,1-0.9,1.4-1.3c-2,1.8-0.5,0.4,0,0c1.7-1,3.3-2,5-2.9c1.5-0.8-0.4,0.2-0.6,0.2     c0.8-0.3,1.7-0.6,2.5-0.8c0.8-0.2,4.6-1.1,3.2-0.8c-1.4,0.3,2.7-0.1,3.4-0.1c0.9,0,1.8,0.1,2.7,0.1c2.9,0.1-1-0.3,0.7,0.1     c1.9,0.5,3.8,1,5.7,1.6c-2.7-0.9,1.3,0.7,2.3,1.3c1,0.6,4.3,3.2,2.2,1.4c1.5,1.3,2.8,2.6,4.1,4.1c1.5,1.6-1.2-1.9,0,0     c0.6,0.9,1.2,1.8,1.8,2.7c0.5,0.9,2.2,5,1.3,2.3c0.6,1.7,1,3.4,1.5,5.1c0.7,2.7,0.2,0.7,0.1,0     C163.6,426.4,163.6,427.8,163.6,429.1c0.1,7.8,6.8,15.4,15,15c8-0.4,15.2-6.6,15-15c-0.4-22.5-14.3-42.1-35.5-49.7     c-19.9-7.2-44-0.6-57.3,15.9c-13.9,17.1-16.5,41.2-5.2,60.4c11.5,19.6,34.2,29,56.2,24.9c24.4-4.5,41.4-27.3,41.9-51.5     c0.1-7.8-7-15.4-15-15C170.4,414.5,163.8,420.7,163.6,429.1z" />
                                        </g>
                                    </g>
                                    <g>
                                        <circle cx="141" cy="71" r="37.6" />
                                        <g>
                                            <path d="M163.6,71c0,1-0.8,5.7-0.1,2.8c-0.4,1.5-0.7,3-1.1,4.5c-0.2,0.6-0.4,1.2-0.6,1.9c0.9-2.6,0.3-0.6,0,0     c-0.8,1.5-1.7,3-2.6,4.5c-1.5,2.4-0.4,0.5,0,0c-0.6,0.6-1.1,1.3-1.7,1.9c-0.6,0.6-1.3,1.2-1.8,1.8c-0.1,0.1-1.8,1.5-0.5,0.5     c1.1-0.9-2.1,1.4-2.7,1.7c-0.7,0.4-1.5,0.8-2.3,1.2c-2.4,1.3,1-0.2-0.6,0.3c-1.5,0.4-2.9,0.9-4.4,1.3c-2.7,0.7-0.7,0.2,0,0.1     c-0.9,0.1-1.8,0.2-2.7,0.2c-1.6,0.1-3.2-0.1-4.8-0.1c-1.8-0.1,0.4,0,0.6,0.1c-1.1-0.3-2.2-0.4-3.2-0.7c-0.9-0.3-4.5-1.6-2-0.5     c-1.6-0.7-3.1-1.5-4.6-2.5c-0.7-0.5-1.4-0.9-2.1-1.5c0.2,0.1,1.8,1.5,0.5,0.3c-1.4-1.3-2.8-2.7-4.1-4.1c1.8,2-0.5-0.8-1-1.7     c-0.8-1.3-1.5-2.6-2.1-4c1.3,2.9-0.5-1.9-0.7-2.6c-0.2-0.6-0.3-1.3-0.4-1.9c-0.4-1.6,0,2.2-0.1-0.7c0-1.6-0.1-3.2,0-4.8     c0-0.5,0.4-3.3,0.1-1.4c-0.3,1.8,0.1-0.4,0.2-0.6c0.5-1.7,0.9-3.4,1.5-5.1c-1,2.8,0.8-1.4,1.3-2.3c0.4-0.7,3.4-4.5,1.4-2.2     c1-1.1,2-2.2,3.1-3.3c0.4-0.5,1-0.9,1.4-1.3c-2,1.8-0.5,0.4,0,0c1.7-1,3.3-2,5-2.9c1.5-0.8-0.4,0.2-0.6,0.2     c0.8-0.3,1.7-0.6,2.5-0.8c0.8-0.2,4.6-1.1,3.2-0.8c-1.4,0.3,2.7-0.1,3.4-0.1c0.9,0,1.8,0.1,2.7,0.1c2.9,0.1-1-0.3,0.7,0.1     c1.9,0.5,3.8,1,5.7,1.6c-2.7-0.9,1.3,0.7,2.3,1.3c1,0.6,4.3,3.2,2.2,1.4c1.5,1.3,2.8,2.6,4.1,4.1c1.5,1.6-1.2-1.9,0,0     c0.6,0.9,1.2,1.8,1.8,2.7c0.5,0.9,2.2,5,1.3,2.3c0.6,1.7,1,3.4,1.5,5.1c0.7,2.7,0.2,0.7,0.1,0C163.6,68.3,163.6,69.7,163.6,71     c0.1,7.8,6.8,15.4,15,15c8-0.4,15.2-6.6,15-15c-0.4-22.5-14.3-42.1-35.5-49.7c-19.9-7.2-44-0.6-57.3,15.9     c-13.9,17.1-16.5,41.2-5.2,60.4c11.5,19.6,34.2,29,56.2,24.9c24.4-4.5,41.4-27.3,41.9-51.5c0.1-7.8-7-15.4-15-15     C170.4,56.4,163.8,62.6,163.6,71z" />
                                        </g>
                                    </g>
                                    <g>
                                        <g>
                                            <path d="M125.3,109c0,31.9,0,63.9,0,95.8c0,50.9,0,101.7,0,152.6c0,11.6,0,23.2,0,34.7c0,7.8,6.9,15.4,15,15     c8.1-0.4,15-6.6,15-15c0-31.9,0-63.9,0-95.8c0-50.9,0-101.7,0-152.6c0-11.6,0-23.2,0-34.7c0-7.8-6.9-15.4-15-15     C132.2,94.4,125.3,100.6,125.3,109L125.3,109z" />
                                        </g>
                                    </g>
                                    <g>
                                        <circle cx="358.9" cy="147.4" r="37.6" />
                                        <g>
                                            <path d="M381.5,147.4c0,1-0.8,5.7-0.1,2.8c-0.4,1.5-0.7,3-1.1,4.5c-0.2,0.6-0.4,1.2-0.6,1.9c0.9-2.6,0.3-0.6,0,0     c-0.8,1.5-1.7,3-2.6,4.5c-1.5,2.4-0.4,0.5,0,0c-0.6,0.6-1.1,1.3-1.7,1.9c-0.6,0.6-1.3,1.2-1.8,1.8c-0.1,0.1-1.8,1.5-0.5,0.5     c1.1-0.9-2.1,1.4-2.7,1.7c-0.7,0.4-1.5,0.8-2.3,1.2c-2.4,1.3,1-0.2-0.6,0.3c-1.5,0.4-2.9,0.9-4.4,1.3c-2.7,0.7-0.7,0.2,0,0.1     c-0.9,0.1-1.8,0.2-2.7,0.2c-1.6,0.1-3.2-0.1-4.8-0.1c-1.8-0.1,0.4,0,0.6,0.1c-1.1-0.3-2.2-0.4-3.2-0.7c-0.9-0.3-4.5-1.6-2-0.5     c-1.6-0.7-3.1-1.5-4.6-2.5c-0.7-0.5-1.4-0.9-2.1-1.5c0.2,0.1,1.8,1.5,0.5,0.3c-1.4-1.3-2.8-2.7-4.1-4.1c1.8,2-0.5-0.8-1-1.7     c-0.8-1.3-1.5-2.6-2.1-4c1.3,2.9-0.5-1.9-0.7-2.6c-0.2-0.6-0.3-1.3-0.4-1.9c-0.4-1.6,0,2.2-0.1-0.7c0-1.6-0.1-3.2,0-4.8     c0-0.5,0.4-3.3,0.1-1.4c-0.3,1.8,0.1-0.4,0.2-0.6c0.5-1.7,0.9-3.4,1.5-5.1c-1,2.8,0.8-1.4,1.3-2.3c0.4-0.7,3.4-4.5,1.4-2.2     c1-1.1,2-2.2,3.1-3.3c0.4-0.5,1-0.9,1.4-1.3c-2,1.8-0.5,0.4,0,0c1.7-1,3.3-2,5-2.9c1.5-0.8-0.4,0.2-0.6,0.2     c0.8-0.3,1.7-0.6,2.5-0.8c0.8-0.2,4.6-1.1,3.2-0.8c-1.4,0.3,2.7-0.1,3.4-0.1c0.9,0,1.8,0.1,2.7,0.1c2.9,0.1-1-0.3,0.7,0.1     c1.9,0.5,3.8,1,5.7,1.6c-2.7-0.9,1.3,0.7,2.3,1.3c1,0.6,4.3,3.2,2.2,1.4c1.5,1.3,2.8,2.6,4.1,4.1c1.5,1.6-1.2-1.9,0,0     c0.6,0.9,1.2,1.8,1.8,2.7c0.5,0.9,2.2,5,1.3,2.3c0.6,1.7,1,3.4,1.5,5.1c0.7,2.7,0.2,0.7,0.1,0C381.5,144.6,381.5,146,381.5,147.4     c0.1,7.8,6.8,15.4,15,15c8-0.4,15.2-6.6,15-15c-0.4-22.5-14.3-42.1-35.5-49.7c-19.9-7.2-44-0.6-57.3,15.9     c-13.9,17.1-16.5,41.2-5.2,60.4c11.5,19.6,34.2,29,56.2,24.9c24.4-4.5,41.4-27.3,41.9-51.5c0.1-7.8-7-15.4-15-15     C388.3,132.8,381.7,139,381.5,147.4z" />
                                        </g>
                                    </g>
                                    <g>
                                        <g>
                                            <path d="M150.9,362.1c6.6-6.7,13-13.6,20.5-19.3c-0.8,0.6,1.9-1.4,2.4-1.7c1.6-1.1,3.2-2.2,4.9-3.3     c3.1-2,6.2-3.8,9.5-5.5c3.8-2,7.9-3.9,10.7-4.9c11.2-4.4,22.5-8.7,33.8-13c14.3-5.5,28.7-11,43-16.6     c18.6-7.2,35.5-16.1,50.6-29.3c22.7-19.8,39-47.4,45.6-76.8c1.7-7.6-2.3-16.6-10.5-18.5c-7.6-1.7-16.6,2.3-18.5,10.5     c-1.3,5.7-2.9,11.4-5,16.8c-0.2,0.7-1.7,4.4-1.4,3.6c0.6-1.4-0.4,0.8-0.4,0.9c-0.3,0.7-0.6,1.3-0.9,2c-1.4,3-3,6-4.6,9     c-1.5,2.7-3.2,5.4-4.9,8c-0.8,1.2-1.6,2.4-2.4,3.5c-0.5,0.8-2.7,3.6-2.3,3.1c0.4-0.5-1.8,2.2-2.4,2.9c-0.9,1.1-1.9,2.2-2.8,3.2     c-2.3,2.5-4.6,4.9-7,7.2c-2.1,2-4.2,3.9-6.5,5.7c-0.7,0.6-1.5,1.2-2.2,1.8c0.2-0.2,1.6-1.2,0.2-0.2c-1.4,1-2.7,2-4.1,2.9     c-5.4,3.7-11.1,7-16.9,9.8c-1.3,0.6-2.6,1.2-4,1.9c-1.6,0.7-0.1,0.1,0.2-0.1c-0.7,0.3-1.4,0.6-2.1,0.8c-0.4,0.2-0.8,0.3-1.3,0.5     c-1.4,0.5-2.8,1.1-4.2,1.6c-25.6,9.8-51.1,19.6-76.7,29.5c-12.5,4.9-24.5,10.8-35.3,18.9c-9.6,7.1-17.9,15.2-26.2,23.7     c-5.7,5.8-5.8,15.5,0,21.2C135.4,367.8,145.2,367.9,150.9,362.1L150.9,362.1z" />
                                        </g>
                                    </g>
                                </g>
                            </svg>